<?xml version="1.0" encoding="UTF-8" standalone="no"?>
<!-- Created with Inkscape (http://www.inkscape.org/) -->

<svg
   width="210mm"
   height="297mm"
   viewBox="0 0 210 297"
   version="1.1"
   id="svg5"
   xml:space="preserve"
   inkscape:version="1.2 (dc2aedaf03, 2022-05-15)"
   sodipodi:docname="ruestung.svg"
   xmlns:inkscape="http://www.inkscape.org/namespaces/inkscape"
   xmlns:sodipodi="http://sodipodi.sourceforge.net/DTD/sodipodi-0.dtd"
   xmlns:xlink="http://www.w3.org/1999/xlink"
   xmlns="http://www.w3.org/2000/svg"
   xmlns:svg="http://www.w3.org/2000/svg"><sodipodi:namedview
     id="namedview7"
     pagecolor="#ffffff"
     bordercolor="#666666"
     borderopacity="1.0"
     inkscape:showpageshadow="2"
     inkscape:pageopacity="0.0"
     inkscape:pagecheckerboard="0"
     inkscape:deskcolor="#d1d1d1"
     inkscape:document-units="mm"
     showgrid="false"
     inkscape:zoom="0.5593762"
     inkscape:cx="254.74806"
     inkscape:cy="386.14442"
     inkscape:current-layer="layer3" /><defs
     id="defs2"><rect
       x="348.89127"
       y="231.33008"
       width="92.279212"
       height="33.498618"
       id="rect2759" /><rect
       x="196.56736"
       y="432.32179"
       width="135.89062"
       height="18.329433"
       id="rect2616" /><rect
       x="220.78165"
       y="222.56936"
       width="92.513768"
       height="35.754113"
       id="rect2416" /><rect
       x="220.78165"
       y="222.56937"
       width="92.513771"
       height="35.754112"
       id="rect2416-7" /><rect
       x="220.78165"
       y="222.56937"
       width="92.513771"
       height="35.754112"
       id="rect2416-9" /><rect
       x="220.78165"
       y="222.56937"
       width="184.16093"
       height="40.810507"
       id="rect2416-9-6" /><rect
       x="220.78165"
       y="222.56937"
       width="149.39822"
       height="41.442558"
       id="rect2416-9-6-5" /><rect
       x="220.78165"
       y="222.56937"
       width="170.88789"
       height="42.706657"
       id="rect2416-9-6-56" /><rect
       x="220.78165"
       y="222.56937"
       width="177.20839"
       height="38.91436"
       id="rect2416-9-6-56-2" /><rect
       x="220.78165"
       y="222.56937"
       width="150.03026"
       height="35.122064"
       id="rect2416-9-6-56-2-8" /><rect
       x="220.78165"
       y="222.56937"
       width="92.513771"
       height="35.754112"
       id="rect2416-1" /><rect
       x="220.78165"
       y="222.56937"
       width="92.513771"
       height="35.754112"
       id="rect2416-4" /><rect
       x="220.78165"
       y="222.56937"
       width="92.513771"
       height="35.754112"
       id="rect2416-4-7" /><rect
       x="220.78165"
       y="222.56937"
       width="92.513771"
       height="35.754112"
       id="rect2416-4-7-5" /><rect
       x="220.78165"
       y="222.56937"
       width="92.513771"
       height="35.754112"
       id="rect2416-4-7-5-6" /><rect
       x="220.78165"
       y="222.56937"
       width="92.513771"
       height="35.754112"
       id="rect2416-4-7-5-6-7" /><rect
       x="220.78165"
       y="222.56937"
       width="92.513771"
       height="35.754112"
       id="rect2416-4-7-5-6-7-9" /></defs><g
     inkscape:label="Background"
     inkscape:groupmode="layer"
     id="layer1"
     style="display:none"><image
       width="139.7"
       height="178.06459"
       preserveAspectRatio="none"
       xlink:href="ruestung_2.PNG"
       id="image1058"
       x="1.3898662"
       y="0.93730021" /></g><g
     inkscape:groupmode="layer"
     id="layer2"
     inkscape:label="Draw"><path
       style="fill:none;fill-rule:evenodd;stroke:#000000;stroke-width:1.5;stroke-linejoin:round;stroke-miterlimit:4.1;stroke-dasharray:none"
       d="m 96.826013,14.883446 41.723817,-0.16723 -0.25085,8.94679 -1.08699,8.445102 -2.50844,9.866553 -3.51183,7.02365 -4.09713,4.933275 0.28969,7.351446 -0.54053,1.595345 0.50169,2.759291 -0.0938,2.065011 -1.14104,0.684135 c -2.34732,6.251448 -3.82629,11.681602 -5.33701,16.792242 -0.42011,0.987749 5.09847,6.145998 5.64538,8.528864 l 0.34112,0.609647 0.41808,2.675676 c 0,0 0.33446,4.013517 0.50169,4.598817 0.16723,0.5853 -0.0418,7.35811 -0.0418,7.35811 h -2.84291 c -1.69012,2.71073 -0.11733,5.20478 -0.20903,6.04117 0.2529,2.60133 -0.74356,2.18192 -1.33784,2.98923 l -0.83615,0.71073 -0.89886,0.66892 c -2.41478,1.0481 -1.83207,2.96636 -2.00868,3.32858 l -0.78681,0.98123 -1.44123,0.30082 c -1.68093,0.61402 -3.6527,2.58331 -4.03974,2.84552 -0.4448,0.62539 -5.85932,1.42816 -5.93955,2.14224 l -0.18665,3.90541 5.06457,0.83064 c 1.33541,0.25426 2.3505,0.74614 3.46705,1.22002 1.48702,0.54186 1.94811,1.65627 2.33831,2.38093 l 2.00676,3.76267 -2.8429,6.02026 -3.01014,-1.83952 -2.00676,-5.43497 -5.35135,-1.6723 2.2576,5.35136 1.92314,10.36824 0.75254,5.85304 2.09037,5.01689 0.83615,0.83615 0.83615,5.10051 0.25084,7.94341 -90.053207,-0.33446 -0.919763,-4.26436 0.585304,-2.50844 0.752533,-3.67906 0.08361,-4.43159 1.588684,-1.25422 3.511822,-20.56926 -0.668917,-4.76604 -3.929901,1.75591 -4.682431,0.25084 -5.518581,-1.75591 -3.344594,-3.34459 -1.086994,-4.76605 -3.0101347,-4.43159 -1.3378379,-3.76267 -3.0937498,-4.68243 -0.8361487,-2.67568 -1.3378378,-2.42483 -0.7415194,-1.93197 c 0.014785,-1.76382 0.075202,-3.4964 0.8251342,-4.75722 L 2.4543732,95.387318 C 2.5054047,93.361442 2.7784165,91.4066 3.8078827,89.693824 l 1.292624,-1.062068 C 7.3700758,83.776792 9.5464991,78.89078 12.458614,74.249998 11.116945,70.648342 9.6019936,67.15332 8.9467903,63.129223 l -0.3344592,-3.511825 0.7525337,10e-7 c 3.0294572,0.33121 5.3112082,1.597054 7.9434122,2.424831 l 0.501689,-4.933278 29.829602,-20.548353 c 3.112842,-1.269216 4.897092,-0.513824 7.232687,-1.128801 l -0.271749,-2.738387 c -0.742448,-0.890932 -0.241932,-1.399413 -0.33446,-2.09037 l 0.25085,-2.090372 -0.752536,-1.755912 c -0.08362,-0.55743 -0.418071,-0.864023 -1.003377,-0.919764 H 51.50676 l -0.376269,-0.815245 0.459882,-1.296031 c 0.446989,-0.666175 0.62079,-1.413533 1.484164,-2.02766 l 1.107897,-1.651394 0.250845,-2.403927 -1.066091,-1.505067 c 0.230021,-1.78681 1.024997,-3.071436 1.735008,-4.431588 L 54.245144,10.01288 53.052401,9.4573933 C 52.515996,8.965218 52.182397,7.5065878 52.706056,6.7330975 54.049188,5.3940449 54.538276,4.9503846 55.603885,4.2643581 h 1.75591 C 59.218067,4.28584 60.18514,3.6834833 61.289697,3.1773648 l 1.992408,-1.0227965 5.437577,-0.063327 1.949223,0.6537027 c 0.907844,0.4942382 1.842084,0.724519 2.828561,0.4324203 1.31732,-0.2664593 2.651055,-0.5055618 4.431588,0 l 4.467091,2.2635438 0.88426,2.6697333 1.003377,2.5084456 1.254223,1.923142 c 1.492357,0.820979 1.692457,1.279727 2.926521,1.337838 l 0.919764,1.170609 0.08361,2.424829 -0.668917,2.759292 -0.16723,2.92652 v 4.598818 l -0.836149,4.097129 -2.926519,1.170606 0.16723,3.846285 1.337836,0.752534 2.257602,-0.668921 2.42483,-0.752533 2.257602,-1.421453 0.752533,0.250845 -3.428209,8.277873 8.612331,1.086992 -1.588683,-3.846285 -1.086993,-3.762667 -1.170607,-7.107265 -0.334459,-4.849661 -0.08362,-5.267737 -0.16723,-4.598817 z"
       id="path3137"
       sodipodi:nodetypes="ccccccccccccccccsccccccccccccccccccccccccccccccccccccccccccccccccccccccccccccccccccccccccccccccccccccccccccccccccccccccccccccc"
       inkscape:export-filename="ruestung.png"
       inkscape:export-xdpi="160"
       inkscape:export-ydpi="160" /><path
       style="fill:#ffffff;fill-rule:evenodd;stroke:#000000;stroke-width:1.5;stroke-linejoin:round;stroke-miterlimit:4.1;stroke-dasharray:none;stroke-dashoffset:0"
       id="path3302"
       sodipodi:type="arc"
       sodipodi:cx="27.138208"
       sodipodi:cy="38.135395"
       sodipodi:rx="19.925001"
       sodipodi:ry="19.925001"
       sodipodi:start="6.2681213"
       sodipodi:end="6.2675276"
       sodipodi:open="true"
       sodipodi:arc-type="arc"
       d="M 47.060949,37.835256 A 19.925001,19.925001 0 0 1 27.441304,58.058091 19.925001,19.925001 0 0 1 7.2155579,38.441448 19.925001,19.925001 0 0 1 26.829198,18.21279 19.925001,19.925001 0 0 1 47.060767,37.823428" /><rect
       style="fill:#ffffff;fill-rule:evenodd;stroke:#000000;stroke-width:1.5;stroke-linejoin:round;stroke-miterlimit:4.1;stroke-dasharray:none;stroke-dashoffset:0"
       id="rect4868"
       width="25.251688"
       height="24.499155"
       x="58.112331"
       y="32.777027" /><rect
       style="fill:#ffffff;fill-rule:evenodd;stroke:#000000;stroke-width:1.5;stroke-linejoin:round;stroke-miterlimit:4.1;stroke-dasharray:none;stroke-dashoffset:0"
       id="rect4868-0"
       width="25.251688"
       height="24.499155"
       x="22.375942"
       y="71.470909" /><rect
       style="fill:#ffffff;fill-rule:evenodd;stroke:#000000;stroke-width:1.5;stroke-linejoin:round;stroke-miterlimit:4.1;stroke-dasharray:none;stroke-dashoffset:0"
       id="rect4868-0-0"
       width="25.251688"
       height="24.499155"
       x="57.377728"
       y="85.424324" /><rect
       style="fill:#ffffff;fill-rule:evenodd;stroke:#000000;stroke-width:1.5;stroke-linejoin:round;stroke-miterlimit:4.1;stroke-dasharray:none;stroke-dashoffset:0"
       id="rect4868-0-0-4"
       width="25.251688"
       height="24.499155"
       x="92.379509"
       y="71.116158" /><rect
       style="fill:#ffffff;fill-rule:evenodd;stroke:#000000;stroke-width:1.5;stroke-linejoin:round;stroke-miterlimit:4.1;stroke-dasharray:none;stroke-dashoffset:0"
       id="rect4868-0-0-4-6"
       width="25.251688"
       height="24.499155"
       x="36.920601"
       y="142.65698" /><rect
       style="fill:#ffffff;fill-rule:evenodd;stroke:#000000;stroke-width:1.5;stroke-linejoin:round;stroke-miterlimit:4.1;stroke-dasharray:none;stroke-dashoffset:0"
       id="rect4868-0-0-4-6-7"
       width="25.251688"
       height="24.499155"
       x="77.243607"
       y="141.94748" /></g><g
     inkscape:groupmode="layer"
     id="layer3"
     inkscape:label="Text"><text
       xml:space="preserve"
       transform="matrix(0.26458333,0,0,0.26458333,4.1506094,-1.0642435)"
       id="text2414"
       style="font-size:26.6667px;line-height:1.25;font-family:'Palatino Linotype';-inkscape-font-specification:'Palatino Linotype';white-space:pre;shape-inside:url(#rect2416);display:inline"><tspan
         x="220.78125"
         y="245.11239"
         id="tspan1675"><tspan
           style="font-weight:bold;-inkscape-font-specification:'Palatino Linotype Bold'"
           id="tspan1673">Kopf</tspan></tspan></text><text
       xml:space="preserve"
       transform="matrix(0.26458333,0,0,0.26458333,3.5208005,-33.920218)"
       id="text2414-2"
       style="font-size:26.6667px;line-height:1.25;font-family:'Palatino Linotype';-inkscape-font-specification:'Palatino Linotype';white-space:pre;shape-inside:url(#rect2416-4);display:inline"><tspan
         x="220.78125"
         y="245.11239"
         id="tspan1679"><tspan
           style="font-weight:bold;-inkscape-font-specification:'Palatino Linotype Bold'"
           id="tspan1677">01-09</tspan></tspan></text><text
       xml:space="preserve"
       transform="matrix(0.26458333,0,0,0.26458333,-30.699284,4.9224702)"
       id="text2414-2-9"
       style="font-size:26.6667px;line-height:1.25;font-family:'Palatino Linotype';-inkscape-font-specification:'Palatino Linotype';white-space:pre;shape-inside:url(#rect2416-4-7);display:inline"><tspan
         x="220.78125"
         y="245.11239"
         id="tspan1683"><tspan
           style="font-weight:bold;-inkscape-font-specification:'Palatino Linotype Bold'"
           id="tspan1681">25-44</tspan></tspan></text><text
       xml:space="preserve"
       transform="matrix(0.26458333,0,0,0.26458333,4.2975405,18.332344)"
       id="text2414-2-9-9"
       style="font-size:26.6667px;line-height:1.25;font-family:'Palatino Linotype';-inkscape-font-specification:'Palatino Linotype';white-space:pre;shape-inside:url(#rect2416-4-7-5);display:inline"><tspan
         x="220.78125"
         y="245.11239"
         id="tspan1687"><tspan
           style="font-weight:bold;-inkscape-font-specification:'Palatino Linotype Bold'"
           id="tspan1685">45-79</tspan></tspan></text><text
       xml:space="preserve"
       transform="matrix(0.26458333,0,0,0.26458333,39.132098,4.1830069)"
       id="text2414-2-9-9-1"
       style="font-size:26.6667px;line-height:1.25;font-family:'Palatino Linotype';-inkscape-font-specification:'Palatino Linotype';white-space:pre;shape-inside:url(#rect2416-4-7-5-6);display:inline"><tspan
         x="220.78125"
         y="245.11239"
         id="tspan1691"><tspan
           style="font-weight:bold;-inkscape-font-specification:'Palatino Linotype Bold'"
           id="tspan1689">10-24</tspan></tspan></text><text
       xml:space="preserve"
       transform="matrix(0.26458333,0,0,0.26458333,23.653326,74.402792)"
       id="text2414-2-9-9-1-1"
       style="font-size:26.6667px;line-height:1.25;font-family:'Palatino Linotype';-inkscape-font-specification:'Palatino Linotype';white-space:pre;shape-inside:url(#rect2416-4-7-5-6-7);display:inline"><tspan
         x="220.78125"
         y="245.11239"
         id="tspan1695"><tspan
           style="font-weight:bold;-inkscape-font-specification:'Palatino Linotype Bold'"
           id="tspan1693">80-99</tspan></tspan></text><text
       xml:space="preserve"
       transform="matrix(0.26458333,0,0,0.26458333,-17.615672,75.948436)"
       id="text2414-2-9-9-1-1-7"
       style="font-style:normal;font-variant:normal;font-weight:bold;font-stretch:normal;font-size:26.6667px;line-height:1.25;font-family:'Palatino Linotype';-inkscape-font-specification:'Palatino Linotype Bold';white-space:pre;shape-inside:url(#rect2416-4-7-5-6-7-9);display:inline"><tspan
         x="220.78125"
         y="245.11239"
         id="tspan1697">90-00</tspan></text><text
       xml:space="preserve"
       transform="matrix(0.26458333,0,0,0.26458333,47.502222,-42.281706)"
       id="text2414-31"
       style="font-size:26.6667px;line-height:1.25;font-family:'Palatino Linotype';-inkscape-font-specification:'Palatino Linotype';white-space:pre;shape-inside:url(#rect2416-1);display:inline"><tspan
         x="220.78125"
         y="245.11239"
         id="tspan1701"><tspan
           style="font-weight:bold;-inkscape-font-specification:'Palatino Linotype Bold'"
           id="tspan1699">Schild</tspan></tspan></text><text
       xml:space="preserve"
       transform="matrix(0.26458333,0,0,0.26458333,-36.040099,-9.2202963)"
       id="text2414-3"
       style="font-style:normal;font-variant:normal;font-weight:bold;font-stretch:normal;font-size:26.6667px;line-height:1.25;font-family:'Palatino Linotype';-inkscape-font-specification:'Palatino Linotype Bold';white-space:pre;shape-inside:url(#rect2416-9);display:inline"><tspan
         x="220.78125"
         y="245.11239"
         id="tspan1703">WB</tspan></text><text
       xml:space="preserve"
       transform="matrix(0.26458333,0,0,0.26458333,-44.622895,38.11664)"
       id="text2414-3-5"
       style="font-size:26.6667px;line-height:1.25;font-family:'Palatino Linotype';-inkscape-font-specification:'Palatino Linotype';white-space:pre;shape-inside:url(#rect2416-9-6);display:inline"><tspan
         x="220.78125"
         y="245.11239"
         id="tspan1707"><tspan
           style="font-weight:bold;-inkscape-font-specification:'Palatino Linotype Bold'"
           id="tspan1705">Rechter Arm</tspan></tspan></text><text
       xml:space="preserve"
       transform="matrix(0.26458333,0,0,0.26458333,1.2760583,52.009151)"
       id="text2414-3-5-00"
       style="font-size:26.6667px;line-height:1.25;font-family:'Palatino Linotype';-inkscape-font-specification:'Palatino Linotype';white-space:pre;shape-inside:url(#rect2416-9-6-56);display:inline"><tspan
         x="220.78125"
         y="245.11239"
         id="tspan1711"><tspan
           style="font-weight:bold;-inkscape-font-specification:'Palatino Linotype Bold'"
           id="tspan1709">Körper</tspan></tspan></text><text
       xml:space="preserve"
       transform="matrix(0.26458333,0,0,0.26458333,-30.687149,109.24578)"
       id="text2414-3-5-00-7"
       style="font-size:26.6667px;line-height:1.25;font-family:'Palatino Linotype';-inkscape-font-specification:'Palatino Linotype';white-space:pre;shape-inside:url(#rect2416-9-6-56-2);display:inline"><tspan
         x="220.78125"
         y="245.11239"
         id="tspan1715"><tspan
           style="font-weight:bold;-inkscape-font-specification:'Palatino Linotype Bold'"
           id="tspan1713">Rechtes Bein</tspan></tspan></text><text
       xml:space="preserve"
       transform="matrix(0.26458333,0,0,0.26458333,16.137177,109.24578)"
       id="text2414-3-5-00-7-9"
       style="font-size:26.6667px;line-height:1.25;font-family:'Palatino Linotype';-inkscape-font-specification:'Palatino Linotype';white-space:pre;shape-inside:url(#rect2416-9-6-56-2-8);display:inline"><tspan
         x="220.78125"
         y="245.11239"
         id="tspan1719"><tspan
           style="font-weight:bold;-inkscape-font-specification:'Palatino Linotype Bold'"
           id="tspan1717">Linkes Bein</tspan></tspan></text><text
       xml:space="preserve"
       transform="matrix(0.26458333,0,0,0.26458333,28.846638,37.83868)"
       id="text2414-3-5-0"
       style="font-size:26.6667px;line-height:1.25;font-family:'Palatino Linotype';-inkscape-font-specification:'Palatino Linotype';white-space:pre;shape-inside:url(#rect2416-9-6-5);display:inline"><tspan
         x="220.78125"
         y="245.11239"
         id="tspan1723"><tspan
           style="font-weight:bold;-inkscape-font-specification:'Palatino Linotype Bold'"
           id="tspan1721">Linker Arm</tspan></tspan></text><text
       xml:space="preserve"
       transform="scale(0.26458333)"
       id="text2757"
       style="font-size:16px;line-height:1.25;font-family:'Palatino Linotype';-inkscape-font-specification:'Palatino Linotype';white-space:pre;shape-inside:url(#rect2759);display:inline" /></g></svg>
